{
  "accessors": [
    {
      "bufferView": 2,
      "componentType": 5126,
      "count": 633,
      "max": [
        0.22749300301074982,
        -0.49332401156425476,
        0.055245198309421539
      ],
      "min": [
        0.20676499605178833,
        -0.55455297231674194,
        0.021106699481606483
      ],
      "type": "VEC3"
    },
    {
      "bufferView": 2,
      "byteOffset": 7596,
      "componentType": 5126,
      "count": 633,
      "max": [
        0.99881601333618164,
        0.99979490041732788,
        0.9948311448097229
      ],
      "min": [
        -0.99989610910415649,
        -0.99993985891342163,
        -0.99710863828659058
      ],
      "type": "VEC3"
    },
    {
      "bufferView": 3,
      "componentType": 5126,
      "count": 633,
      "max": [
        0.99892497062683105,
        0.74651700258255005,
        0.99999701976776123,
        1
      ],
      "min": [
        -0.99951201677322388,
        -0.9042930006980896,
        -0.99959498643875122,
        1
      ],
      "type": "VEC4"
    },
    {
      "bufferView": 1,
      "componentType": 5126,
      "count": 633,
      "max": [
        0.99804699420928955,
        0.88965201377868652
      ],
      "min": [
        0.0019531298894435167,
        0.001953149912878871
      ],
      "type": "VEC2"
    },
    {
      "bufferView": 0,
      "componentType": 5125,
      "count": 3378,
      "max": [
        632
      ],
      "min": [
        0
      ],
      "type": "SCALAR"
    },
    {
      "bufferView": 2,
      "byteOffset": 15192,
      "componentType": 5126,
      "count": 327,
      "max": [
        0.073386296629905701,
        -0.95476198196411133,
        0.072627998888492584
      ],
      "min": [
        -0.072763398289680481,
        -1,
        -0.073087602853775024
      ],
      "type": "VEC3"
    },
    {
      "bufferView": 2,
      "byteOffset": 19116,
      "componentType": 5126,
      "count": 327,
      "max": [
        0.97219622135162354,
        0.99999666213989258,
        0.96580249071121216
      ],
      "min": [
        -0.97700709104537964,
        -0.99994021654129028,
        -0.96580249071121216
      ],
      "type": "VEC3"
    },
    {
      "bufferView": 3,
      "byteOffset": 10128,
      "componentType": 5126,
      "count": 327,
      "max": [
        0.962444007396698,
        0.96916401386260986,
        0.99768400192260742,
        -1
      ],
      "min": [
        -0.99420297145843506,
        -0.49758398532867432,
        -0.90396702289581299,
        -1
      ],
      "type": "VEC4"
    },
    {
      "bufferView": 1,
      "byteOffset": 5064,
      "componentType": 5126,
      "count": 327,
      "max": [
        0.39004901051521301,
        0.27296200394630432
      ],
      "min": [
        0,
        0
      ],
      "type": "VEC2"
    },
    {
      "bufferView": 0,
      "byteOffset": 13512,
      "componentType": 5125,
      "count": 1536,
      "max": [
        326
      ],
      "min": [
        0
      ],
      "type": "SCALAR"
    },
    {
      "bufferView": 2,
      "byteOffset": 23040,
      "componentType": 5126,
      "count": 2401,
      "max": [
        0.23972299695014954,
        -0.47111800312995911,
        0.23924799263477325
      ],
      "min": [
        -0.23923100531101227,
        -0.96131998300552368,
        -0.23970699310302734
      ],
      "type": "VEC3"
    },
    {
      "bufferView": 2,
      "byteOffset": 51852,
      "componentType": 5126,
      "count": 2401,
      "max": [
        0.99998414516448975,
        0.99998378753662109,
        1
      ],
      "min": [
        -0.99998414516448975,
        -0.99999666213989258,
        -1
      ],
      "type": "VEC3"
    },
    {
      "bufferView": 3,
      "byteOffset": 15360,
      "componentType": 5126,
      "count": 2401,
      "max": [
        0.98590999841690063,
        0.99997597932815552,
        0.98308300971984863,
        -1
      ],
      "min": [
        -0.97986602783203125,
        -1,
        -0.98307698965072632,
        -1
      ],
      "type": "VEC4"
    },
    {
      "bufferView": 1,
      "byteOffset": 7680,
      "componentType": 5126,
      "count": 2401,
      "max": [
        0.64650601148605347,
        0.75529700517654419
      ],
      "min": [
        0,
        0
      ],
      "type": "VEC2"
    },
    {
      "bufferView": 0,
      "byteOffset": 19656,
      "componentType": 5125,
      "count": 11328,
      "max": [
        2400
      ],
      "min": [
        0
      ],
      "type": "SCALAR"
    },
    {
      "bufferView": 2,
      "byteOffset": 80664,
      "componentType": 5126,
      "count": 1036,
      "max": [
        0.063275501132011414,
        -0.097285501658916473,
        0.05922820046544075
      ],
      "min": [
        -0.055802099406719208,
        -0.4829230010509491,
        -0.059682998806238174
      ],
      "type": "VEC3"
    },
    {
      "bufferView": 2,
      "byteOffset": 93096,
      "componentType": 5126,
      "count": 1036,
      "max": [
        1,
        1,
        0.99999499320983887
      ],
      "min": [
        -0.9999958872795105,
        -1,
        -0.99999463558197021
      ],
      "type": "VEC3"
    },
    {
      "bufferView": 3,
      "byteOffset": 53776,
      "componentType": 5126,
      "count": 1036,
      "max": [
        0.78457498550415039,
        1,
        0.98194897174835205,
        -1
      ],
      "min": [
        -0.99925202131271362,
        -0.99966299533843994,
        -0.99943399429321289,
        -1
      ],
      "type": "VEC4"
    },
    {
      "bufferView": 1,
      "byteOffset": 26888,
      "componentType": 5126,
      "count": 1036,
      "max": [
        0.49152699112892151,
        0.45216798782348633
      ],
      "min": [
        0.005105659831315279,
        0
      ],
      "type": "VEC2"
    },
    {
      "bufferView": 0,
      "byteOffset": 64968,
      "componentType": 5125,
      "count": 5136,
      "max": [
        1035
      ],
      "min": [
        0
      ],
      "type": "SCALAR"
    },
    {
      "bufferView": 2,
      "byteOffset": 105528,
      "componentType": 5126,
      "count": 4912,
      "max": [
        0.11493699997663498,
        0.22738100588321686,
        0.043623100966215134
      ],
      "min": [
        -0.10689300298690796,
        -0.29039201140403748,
        -0.0059365401975810528
      ],
      "type": "VEC3"
    },
    {
      "bufferView": 2,
      "byteOffset": 164472,
      "componentType": 5126,
      "count": 4912,
      "max": [
        0.9999883770942688,
        0.99964421987533569,
        1
      ],
      "min": [
        -0.9999883770942688,
        -0.99931836128234863,
        -0.99998986721038818
      ],
      "type": "VEC3"
    },
    {
      "bufferView": 3,
      "byteOffset": 70352,
      "componentType": 5126,
      "count": 4912,
      "max": [
        1,
        0.9990919828414917,
        0.99891197681427002,
        1
      ],
      "min": [
        -1,
        -0.99903500080108643,
        -0.99942797422409058,
        1
      ],
      "type": "VEC4"
    },
    {
      "bufferView": 1,
      "byteOffset": 35176,
      "componentType": 5126,
      "count": 4912,
      "max": [
        0.99804699420928955,
        0.23841999471187592
      ],
      "min": [
        0.0019530999707058072,
        0.0019531298894435167
      ],
      "type": "VEC2"
    },
    {
      "bufferView": 0,
      "byteOffset": 85512,
      "componentType": 5125,
      "count": 24354,
      "max": [
        4911
      ],
      "min": [
        0
      ],
      "type": "SCALAR"
    },
    {
      "bufferView": 2,
      "byteOffset": 223416,
      "componentType": 5126,
      "count": 4339,
      "max": [
        0.57664299011230469,
        1,
        0.57285201549530029
      ],
      "min": [
        -0.57664299011230469,
        -0.53109699487686157,
        -0.57285201549530029
      ],
      "type": "VEC3"
    },
    {
      "bufferView": 2,
      "byteOffset": 275484,
      "componentType": 5126,
      "count": 4339,
      "max": [
        0.99997174739837646,
        0.99996787309646606,
        0.9997708797454834
      ],
      "min": [
        -0.99991512298583984,
        -1,
        -0.99942386150360107
      ],
      "type": "VEC3"
    },
    {
      "bufferView": 3,
      "byteOffset": 148944,
      "componentType": 5126,
      "count": 4339,
      "max": [
        0.99973201751708984,
        0.64877498149871826,
        0.99999499320983887,
        -1
      ],
      "min": [
        -0.99991500377655029,
        -0.66073900461196899,
        -1,
        -1
      ],
      "type": "VEC4"
    },
    {
      "bufferView": 1,
      "byteOffset": 74472,
      "componentType": 5126,
      "count": 4339,
      "max": [
        0.99293798208236694,
        0.56390601396560669
      ],
      "min": [
        0,
        0
      ],
      "type": "VEC2"
    },
    {
      "bufferView": 0,
      "byteOffset": 182928,
      "componentType": 5125,
      "count": 25020,
      "max": [
        4338
      ],
      "min": [
        0
      ],
      "type": "SCALAR"
    }
  ],
  "asset": {
    "extras": {
      "author": "macriciox (https://sketchfab.com/macriciox)",
      "license": "CC-BY-4.0 (http://creativecommons.org/licenses/by/4.0/)",
      "source": "https://sketchfab.com/models/086a6c9448fd4fc3a70d0ce12cc8314f",
      "title": "Bulb light"
    },
    "generator": "Sketchfab-3.34.6",
    "version": "2.0"
  },
  "bufferViews": [
    {
      "buffer": 0,
      "byteLength": 283008,
      "byteOffset": 0,
      "name": "floatBufferViews",
      "target": 34963
    },
    {
      "buffer": 0,
      "byteLength": 109184,
      "byteOffset": 283008,
      "byteStride": 8,
      "name": "floatBufferViews",
      "target": 34962
    },
    {
      "buffer": 0,
      "byteLength": 327552,
      "byteOffset": 392192,
      "byteStride": 12,
      "name": "floatBufferViews",
      "target": 34962
    },
    {
      "buffer": 0,
      "byteLength": 218368,
      "byteOffset": 719744,
      "byteStride": 16,
      "name": "floatBufferViews",
      "target": 34962
    }
  ],
  "buffers": [
    {
      "byteLength": 938112,
      "uri": "scene.bin"
    }
  ],
  "images": [
    {
      "uri": "textures/Contact_low_metallicRoughness.png"
    },
    {
      "uri": "textures/Contact_low_normal.jpeg"
    },
    {
      "uri": "textures/Contact_low_baseColor.jpeg"
    },
    {
      "uri": "textures/Bulb_low_metallicRoughness.png"
    },
    {
      "uri": "textures/Bulb_low_normal.jpeg"
    },
    {
      "uri": "textures/Bulb_low_baseColor.png"
    },
    {
      "uri": "textures/Seam_low_metallicRoughness.png"
    },
    {
      "uri": "textures/Seam_low_normal.jpeg"
    },
    {
      "uri": "textures/Seam_low_baseColor.jpeg"
    },
    {
      "uri": "textures/Rosca_low_metallicRoughness.png"
    },
    {
      "uri": "textures/Rosca_low_normal.jpeg"
    },
    {
      "uri": "textures/Rosca_low_baseColor.jpeg"
    },
    {
      "uri": "textures/Hairs_low_metallicRoughness.png"
    },
    {
      "uri": "textures/Hairs_low_normal.jpeg"
    },
    {
      "uri": "textures/Hairs_low_baseColor.jpeg"
    },
    {
      "uri": "textures/Hairs_low_emissive.jpeg"
    },
    {
      "uri": "textures/Center_low_metallicRoughness.png"
    },
    {
      "uri": "textures/Center_low_normal.jpeg"
    },
    {
      "uri": "textures/Center_low_baseColor.png"
    }
  ],
  "materials": [
    {
      "alphaMode": "BLEND",
      "doubleSided": true,
      "name": "Bulb_low",
      "normalTexture": {
        "index": 4,
        "scale": 1,
        "texCoord": 0
      },
      "occlusionTexture": {
        "index": 3,
        "strength": 1,
        "texCoord": 0
      },
      "pbrMetallicRoughness": {
        "baseColorFactor": [
          1,
          1,
          1,
          1
        ],
        "baseColorTexture": {
          "index": 5,
          "texCoord": 0
        },
        "metallicFactor": 1,
        "metallicRoughnessTexture": {
          "index": 3,
          "texCoord": 0
        },
        "roughnessFactor": 1
      }
    },
    {
      "doubleSided": true,
      "emissiveFactor": [
        1,
        1,
        1
      ],
      "emissiveTexture": {
        "index": 15,
        "texCoord": 0
      },
      "name": "Hairs_low",
      "normalTexture": {
        "index": 13,
        "scale": 1,
        "texCoord": 0
      },
      "occlusionTexture": {
        "index": 12,
        "strength": 1,
        "texCoord": 0
      },
      "pbrMetallicRoughness": {
        "baseColorFactor": [
          1,
          1,
          1,
          1
        ],
        "baseColorTexture": {
          "index": 14,
          "texCoord": 0
        },
        "metallicFactor": 1,
        "metallicRoughnessTexture": {
          "index": 12,
          "texCoord": 0
        },
        "roughnessFactor": 1
      }
    },
    {
      "alphaMode": "BLEND",
      "doubleSided": true,
      "name": "Center_low",
      "normalTexture": {
        "index": 17,
        "scale": 1,
        "texCoord": 0
      },
      "occlusionTexture": {
        "index": 16,
        "strength": 1,
        "texCoord": 0
      },
      "pbrMetallicRoughness": {
        "baseColorFactor": [
          1,
          1,
          1,
          1
        ],
        "baseColorTexture": {
          "index": 18,
          "texCoord": 0
        },
        "metallicFactor": 1,
        "metallicRoughnessTexture": {
          "index": 16,
          "texCoord": 0
        },
        "roughnessFactor": 1
      }
    },
    {
      "doubleSided": true,
      "name": "Rosca_low",
      "normalTexture": {
        "index": 10,
        "scale": 1,
        "texCoord": 0
      },
      "occlusionTexture": {
        "index": 9,
        "strength": 1,
        "texCoord": 0
      },
      "pbrMetallicRoughness": {
        "baseColorFactor": [
          1,
          1,
          1,
          1
        ],
        "baseColorTexture": {
          "index": 11,
          "texCoord": 0
        },
        "metallicFactor": 1,
        "metallicRoughnessTexture": {
          "index": 9,
          "texCoord": 0
        },
        "roughnessFactor": 1
      }
    },
    {
      "doubleSided": true,
      "name": "Contact_low",
      "normalTexture": {
        "index": 1,
        "scale": 1,
        "texCoord": 0
      },
      "occlusionTexture": {
        "index": 0,
        "strength": 1,
        "texCoord": 0
      },
      "pbrMetallicRoughness": {
        "baseColorFactor": [
          1,
          1,
          1,
          1
        ],
        "baseColorTexture": {
          "index": 2,
          "texCoord": 0
        },
        "metallicFactor": 1,
        "metallicRoughnessTexture": {
          "index": 0,
          "texCoord": 0
        },
        "roughnessFactor": 1
      }
    },
    {
      "doubleSided": true,
      "name": "Seam_low",
      "normalTexture": {
        "index": 7,
        "scale": 1,
        "texCoord": 0
      },
      "occlusionTexture": {
        "index": 6,
        "strength": 1,
        "texCoord": 0
      },
      "pbrMetallicRoughness": {
        "baseColorFactor": [
          1,
          1,
          1,
          1
        ],
        "baseColorTexture": {
          "index": 8,
          "texCoord": 0
        },
        "metallicFactor": 1,
        "metallicRoughnessTexture": {
          "index": 6,
          "texCoord": 0
        },
        "roughnessFactor": 1
      }
    }
  ],
  "meshes": [
    {
      "name": "defaultMaterial",
      "primitives": [
        {
          "attributes": {
            "NORMAL": 1,
            "POSITION": 0,
            "TANGENT": 2,
            "TEXCOORD_0": 3
          },
          "indices": 4,
          "material": 5,
          "mode": 4
        }
      ]
    },
    {
      "name": "defaultMaterial",
      "primitives": [
        {
          "attributes": {
            "NORMAL": 6,
            "POSITION": 5,
            "TANGENT": 7,
            "TEXCOORD_0": 8
          },
          "indices": 9,
          "material": 4,
          "mode": 4
        }
      ]
    },
    {
      "name": "defaultMaterial",
      "primitives": [
        {
          "attributes": {
            "NORMAL": 11,
            "POSITION": 10,
            "TANGENT": 12,
            "TEXCOORD_0": 13
          },
          "indices": 14,
          "material": 3,
          "mode": 4
        }
      ]
    },
    {
      "name": "defaultMaterial",
      "primitives": [
        {
          "attributes": {
            "NORMAL": 16,
            "POSITION": 15,
            "TANGENT": 17,
            "TEXCOORD_0": 18
          },
          "indices": 19,
          "material": 2,
          "mode": 4
        }
      ]
    },
    {
      "name": "defaultMaterial",
      "primitives": [
        {
          "attributes": {
            "NORMAL": 21,
            "POSITION": 20,
            "TANGENT": 22,
            "TEXCOORD_0": 23
          },
          "indices": 24,
          "material": 1,
          "mode": 4
        }
      ]
    },
    {
      "name": "defaultMaterial",
      "primitives": [
        {
          "attributes": {
            "NORMAL": 26,
            "POSITION": 25,
            "TANGENT": 27,
            "TEXCOORD_0": 28
          },
          "indices": 29,
          "material": 0,
          "mode": 4
        }
      ]
    }
  ],
  "nodes": [
    {
      "children": [
        1
      ],
      "name": "RootNode (gltf orientation matrix)",
      "rotation": [
        -0.70710678118654746,
        -0,
        -0,
        0.70710678118654757
      ]
    },
    {
      "children": [
        2
      ],
      "name": "RootNode (model correction matrix)"
    },
    {
      "children": [
        3,
        5,
        7,
        9,
        11,
        13
      ],
      "matrix": [
        1,
        0,
        0,
        0,
        0,
        -4.3711390063094768e-08,
        0.999999999999999,
        0,
        0,
        -0.999999999999999,
        -4.3711390063094768e-08,
        0,
        0,
        0,
        0,
        1
      ],
      "name": "Collada visual scene group"
    },
    {
      "children": [
        4
      ],
      "name": "Seam_low"
    },
    {
      "mesh": 0,
      "name": "defaultMaterial"
    },
    {
      "children": [
        6
      ],
      "name": "Contact_low"
    },
    {
      "mesh": 1,
      "name": "defaultMaterial"
    },
    {
      "children": [
        8
      ],
      "name": "Rosca_low"
    },
    {
      "mesh": 2,
      "name": "defaultMaterial"
    },
    {
      "children": [
        10
      ],
      "name": "Center_low"
    },
    {
      "mesh": 3,
      "name": "defaultMaterial"
    },
    {
      "children": [
        12
      ],
      "name": "Hairs_low"
    },
    {
      "mesh": 4,
      "name": "defaultMaterial"
    },
    {
      "children": [
        14
      ],
      "name": "Bulb_low"
    },
    {
      "mesh": 5,
      "name": "defaultMaterial"
    }
  ],
  "samplers": [
    {
      "magFilter": 9729,
      "minFilter": 9987,
      "wrapS": 10497,
      "wrapT": 10497
    }
  ],
  "scene": 0,
  "scenes": [
    {
      "name": "OSG_Scene",
      "nodes": [
        0
      ]
    }
  ],
  "textures": [
    {
      "sampler": 0,
      "source": 0
    },
    {
      "sampler": 0,
      "source": 1
    },
    {
      "sampler": 0,
      "source": 2
    },
    {
      "sampler": 0,
      "source": 3
    },
    {
      "sampler": 0,
      "source": 4
    },
    {
      "sampler": 0,
      "source": 5
    },
    {
      "sampler": 0,
      "source": 6
    },
    {
      "sampler": 0,
      "source": 7
    },
    {
      "sampler": 0,
      "source": 8
    },
    {
      "sampler": 0,
      "source": 9
    },
    {
      "sampler": 0,
      "source": 10
    },
    {
      "sampler": 0,
      "source": 11
    },
    {
      "sampler": 0,
      "source": 12
    },
    {
      "sampler": 0,
      "source": 13
    },
    {
      "sampler": 0,
      "source": 14
    },
    {
      "sampler": 0,
      "source": 15
    },
    {
      "sampler": 0,
      "source": 16
    },
    {
      "sampler": 0,
      "source": 17
    },
    {
      "sampler": 0,
      "source": 18
    }
  ]
}

